<mxfile host="app.diagrams.net" modified="2020-07-27T11:33:43.819Z" agent="5.0 (Windows NT 10.0; Win64; x64) AppleWebKit/537.36 (KHTML, like Gecko) Chrome/84.0.4147.89 Safari/537.36" etag="uykw_zu4BvQw5Iofm9_B" version="13.5.3" type="github">
  <diagram name="Page-1" id="0783ab3e-0a74-02c8-0abd-f7b4e66b4bec">
    <mxGraphModel dx="2272" dy="794" grid="1" gridSize="10" guides="1" tooltips="1" connect="1" arrows="1" fold="1" page="1" pageScale="1" pageWidth="850" pageHeight="1100" background="#ffffff" math="0" shadow="0">
      <root>
        <mxCell id="0" />
        <mxCell id="1" parent="0" />
        <mxCell id="vtGMeu0cx3mlYmeG9mxN-3" value="" style="rounded=0;whiteSpace=wrap;html=1;fillColor=none;align=left;" vertex="1" parent="1">
          <mxGeometry x="-590" y="200" width="310" height="80" as="geometry" />
        </mxCell>
        <mxCell id="vtGMeu0cx3mlYmeG9mxN-10" value="" style="rounded=0;whiteSpace=wrap;html=1;fillColor=none;align=left;" vertex="1" parent="1">
          <mxGeometry x="-590" y="310" width="310" height="80" as="geometry" />
        </mxCell>
        <mxCell id="GeEZdBUgIkoK3Rp6iFI--1" value="" style="rounded=0;whiteSpace=wrap;html=1;fillColor=none;" parent="1" vertex="1">
          <mxGeometry x="-680" y="190" width="460" height="320" as="geometry" />
        </mxCell>
        <mxCell id="vtGMeu0cx3mlYmeG9mxN-1" value="" style="rounded=0;whiteSpace=wrap;html=1;fillColor=none;align=left;" vertex="1" parent="1">
          <mxGeometry x="-590" y="200" width="310" height="80" as="geometry" />
        </mxCell>
        <mxCell id="GeEZdBUgIkoK3Rp6iFI--7" value="社交账户模块" style="rounded=0;whiteSpace=wrap;html=1;" parent="1" vertex="1">
          <mxGeometry x="-578" y="232" width="120" height="39" as="geometry" />
        </mxCell>
        <mxCell id="GeEZdBUgIkoK3Rp6iFI--8" value="照片合成处理&lt;br&gt;服务模块" style="rounded=0;whiteSpace=wrap;html=1;" parent="1" vertex="1">
          <mxGeometry x="-418" y="232" width="120" height="40" as="geometry" />
        </mxCell>
        <mxCell id="GeEZdBUgIkoK3Rp6iFI--16" value="" style="endArrow=none;dashed=1;html=1;" parent="1" edge="1">
          <mxGeometry width="50" height="50" relative="1" as="geometry">
            <mxPoint x="-658" y="296" as="sourcePoint" />
            <mxPoint x="-240" y="296" as="targetPoint" />
            <Array as="points" />
          </mxGeometry>
        </mxCell>
        <mxCell id="GeEZdBUgIkoK3Rp6iFI--17" value="" style="endArrow=none;dashed=1;html=1;" parent="1" edge="1">
          <mxGeometry width="50" height="50" relative="1" as="geometry">
            <mxPoint x="-658" y="411" as="sourcePoint" />
            <mxPoint x="-240" y="411" as="targetPoint" />
            <Array as="points" />
          </mxGeometry>
        </mxCell>
        <mxCell id="GeEZdBUgIkoK3Rp6iFI--18" value="&lt;font style=&quot;font-size: 16px&quot;&gt;&lt;b&gt;云端系统&lt;/b&gt;&lt;/font&gt;" style="text;html=1;strokeColor=none;fillColor=none;align=center;verticalAlign=middle;whiteSpace=wrap;rounded=0;" parent="1" vertex="1">
          <mxGeometry x="-677" y="221" width="77" height="20" as="geometry" />
        </mxCell>
        <mxCell id="GeEZdBUgIkoK3Rp6iFI--19" value="&lt;font style=&quot;font-size: 16px&quot;&gt;&lt;b&gt;应用层&lt;/b&gt;&lt;/font&gt;" style="text;html=1;strokeColor=none;fillColor=none;align=center;verticalAlign=middle;whiteSpace=wrap;rounded=0;" parent="1" vertex="1">
          <mxGeometry x="-677" y="340" width="77" height="20" as="geometry" />
        </mxCell>
        <mxCell id="GeEZdBUgIkoK3Rp6iFI--20" value="&lt;font style=&quot;font-size: 16px&quot;&gt;&lt;b&gt;硬件&lt;/b&gt;&lt;/font&gt;" style="text;html=1;strokeColor=none;fillColor=none;align=center;verticalAlign=middle;whiteSpace=wrap;rounded=0;" parent="1" vertex="1">
          <mxGeometry x="-677" y="451" width="77" height="20" as="geometry" />
        </mxCell>
        <mxCell id="vtGMeu0cx3mlYmeG9mxN-2" value="&lt;span style=&quot;color: rgb(0, 0, 0); font-family: helvetica; font-size: 12px; font-style: normal; font-weight: 400; letter-spacing: normal; text-align: left; text-indent: 0px; text-transform: none; word-spacing: 0px; background-color: rgb(248, 249, 250); display: inline; float: none;&quot;&gt;分布式多设备合照系统&lt;/span&gt;" style="text;whiteSpace=wrap;html=1;" vertex="1" parent="1">
          <mxGeometry x="-578" y="202" width="150" height="30" as="geometry" />
        </mxCell>
        <mxCell id="vtGMeu0cx3mlYmeG9mxN-4" value="&lt;span style=&quot;color: rgb(0, 0, 0); font-family: helvetica; font-size: 12px; font-style: normal; font-weight: 400; letter-spacing: normal; text-align: left; text-indent: 0px; text-transform: none; word-spacing: 0px; background-color: rgb(248, 249, 250); display: inline; float: none;&quot;&gt;分布式多设备合照系统&lt;/span&gt;" style="text;whiteSpace=wrap;html=1;" vertex="1" parent="1">
          <mxGeometry x="-578" y="202" width="150" height="30" as="geometry" />
        </mxCell>
        <mxCell id="vtGMeu0cx3mlYmeG9mxN-5" value="社交账户服务模块" style="rounded=0;whiteSpace=wrap;html=1;" vertex="1" parent="1">
          <mxGeometry x="-578" y="232" width="120" height="39" as="geometry" />
        </mxCell>
        <mxCell id="vtGMeu0cx3mlYmeG9mxN-6" value="" style="rounded=0;whiteSpace=wrap;html=1;fillColor=none;align=left;strokeColor=none;strokeWidth=1;" vertex="1" parent="1">
          <mxGeometry x="-590" y="310" width="310" height="80" as="geometry" />
        </mxCell>
        <mxCell id="vtGMeu0cx3mlYmeG9mxN-7" value="社交账户模块" style="rounded=0;whiteSpace=wrap;html=1;" vertex="1" parent="1">
          <mxGeometry x="-578" y="342" width="120" height="39" as="geometry" />
        </mxCell>
        <mxCell id="vtGMeu0cx3mlYmeG9mxN-8" value="合照模块" style="rounded=0;whiteSpace=wrap;html=1;" vertex="1" parent="1">
          <mxGeometry x="-418" y="342" width="120" height="40" as="geometry" />
        </mxCell>
        <mxCell id="vtGMeu0cx3mlYmeG9mxN-9" value="&lt;span style=&quot;color: rgb(0 , 0 , 0) ; font-family: &amp;#34;helvetica&amp;#34; ; font-size: 12px ; font-style: normal ; font-weight: 400 ; letter-spacing: normal ; text-align: left ; text-indent: 0px ; text-transform: none ; word-spacing: 0px ; background-color: rgb(248 , 249 , 250) ; display: inline ; float: none&quot;&gt;合照APP&lt;/span&gt;" style="text;whiteSpace=wrap;html=1;" vertex="1" parent="1">
          <mxGeometry x="-578" y="312" width="150" height="30" as="geometry" />
        </mxCell>
        <mxCell id="vtGMeu0cx3mlYmeG9mxN-12" value="社交模块" style="rounded=0;whiteSpace=wrap;html=1;" vertex="1" parent="1">
          <mxGeometry x="-578" y="342" width="120" height="39" as="geometry" />
        </mxCell>
        <mxCell id="vtGMeu0cx3mlYmeG9mxN-22" value="" style="rounded=0;whiteSpace=wrap;html=1;fillColor=none;align=left;" vertex="1" parent="1">
          <mxGeometry x="-590" y="421" width="310" height="80" as="geometry" />
        </mxCell>
        <mxCell id="vtGMeu0cx3mlYmeG9mxN-23" value="" style="rounded=0;whiteSpace=wrap;html=1;fillColor=none;align=left;strokeColor=none;strokeWidth=1;" vertex="1" parent="1">
          <mxGeometry x="-590" y="421" width="360" height="80" as="geometry" />
        </mxCell>
        <mxCell id="vtGMeu0cx3mlYmeG9mxN-25" value="各种传感器" style="rounded=0;whiteSpace=wrap;html=1;" vertex="1" parent="1">
          <mxGeometry x="-484" y="453" width="90" height="40" as="geometry" />
        </mxCell>
        <mxCell id="vtGMeu0cx3mlYmeG9mxN-26" value="&lt;span style=&quot;color: rgb(0 , 0 , 0) ; font-family: &amp;#34;helvetica&amp;#34; ; font-size: 12px ; font-style: normal ; font-weight: 400 ; letter-spacing: normal ; text-align: left ; text-indent: 0px ; text-transform: none ; word-spacing: 0px ; background-color: rgb(248 , 249 , 250) ; display: inline ; float: none&quot;&gt;硬件设备&lt;/span&gt;" style="text;whiteSpace=wrap;html=1;" vertex="1" parent="1">
          <mxGeometry x="-578" y="423" width="150" height="30" as="geometry" />
        </mxCell>
        <mxCell id="vtGMeu0cx3mlYmeG9mxN-27" value="相机" style="rounded=0;whiteSpace=wrap;html=1;" vertex="1" parent="1">
          <mxGeometry x="-578" y="453" width="78" height="39" as="geometry" />
        </mxCell>
        <mxCell id="vtGMeu0cx3mlYmeG9mxN-29" value="云端服务器" style="rounded=0;whiteSpace=wrap;html=1;" vertex="1" parent="1">
          <mxGeometry x="-380" y="453" width="90" height="40" as="geometry" />
        </mxCell>
      </root>
    </mxGraphModel>
  </diagram>
</mxfile>
